<svg xmlns="http://www.w3.org/2000/svg" viewBox="0 0 457.85333 187.65334" fill="#fff"><path d="M130.37 0l7.32 9.5c2.4 3.17 4.85 6.33 7.3 9.5 2.46-3.17 4.9-6.33 7.33-9.5l7.32-9.5v29.3h-1.68V6.28l.06-.8.02-.8c-2.1 2.92-4.26 5.8-6.46 8.6-2.2 2.82-4.4 5.65-6.6 8.5l-5.43-7.1c-1.8-2.33-3.6-4.7-5.44-7.1l-1.68-2.15-.24-.38-.23-.38c0 .28 0 .55.02.8 0 .26.02.52.05.8v23h-1.68V0M187 4.85c-.05-.2-.1-.38-.17-.56l-.2-.57c-.68 2.02-1.46 4.02-2.32 6-.86 1.97-1.72 3.96-2.57 5.96h9.87l-2.3-5.45c-.75-1.8-1.52-3.6-2.3-5.4zm12.05 24.44h-1.7l-2.52-6-2.54-6h-11.25c-.86 2-1.7 4-2.54 6-.83 2-1.68 4-2.53 6h-1.72l6.2-14.65c2.05-4.86 4.1-9.74 6.2-14.64l6.2 14.65 6.2 14.64M213.6 1.3h1.64v28h-1.64v-28M244.64 3.65c-.18.2-.35.42-.5.64l-.46.63c-.24-.22-.53-.45-.88-.7-.34-.26-.75-.5-1.22-.72-.46-.22-.98-.4-1.56-.55-.57-.15-1.2-.22-1.86-.22-.93 0-1.74.15-2.44.46-.7.3-1.27.7-1.74 1.23-.46.52-.8 1.12-1.04 1.8-.22.68-.34 1.38-.34 2.1 0 .77.13 1.43.38 1.98.26.55.6 1 1.04 1.4.44.36.97.7 1.58.97.62.28 1.28.54 2 .78l2.86.98c1.06.36 2.05.85 2.98 1.48.94.63 1.72 1.42 2.34 2.37.63.94.94 2.14.94 3.58 0 1.17-.22 2.24-.66 3.2-.44.96-1.04 1.78-1.8 2.46-.76.7-1.65 1.2-2.68 1.57-1.02.36-2.1.54-3.26.54-1.04 0-2-.13-2.9-.4-.9-.26-1.68-.6-2.38-1s-1.3-.82-1.82-1.27c-.52-.46-.92-.86-1.22-1.2l1.12-1.12c.38.38.8.77 1.28 1.17.48.4 1 .76 1.58 1.1.58.33 1.2.6 1.9.82.7.2 1.44.3 2.24.3.9 0 1.78-.13 2.6-.4.83-.3 1.56-.7 2.2-1.2.64-.53 1.16-1.17 1.54-1.9.4-.76.58-1.6.58-2.57 0-1.2-.26-2.2-.8-2.96-.53-.78-1.2-1.42-1.98-1.92s-1.64-.92-2.58-1.24c-.93-.3-1.8-.6-2.6-.87-.5-.16-1.1-.38-1.78-.64-.68-.28-1.33-.65-1.96-1.13-.62-.48-1.17-1.1-1.64-1.82-.46-.74-.7-1.65-.74-2.74-.05-.87.05-1.76.3-2.65.26-.9.68-1.7 1.26-2.4.6-.7 1.35-1.3 2.28-1.74.94-.45 2.07-.67 3.4-.67 1.02 0 2.05.17 3.1.52 1.06.34 2.17 1 3.34 2M261.6 15.37c0 1.76.33 3.4.98 4.94.66 1.54 1.56 2.87 2.7 4 1.15 1.14 2.48 2.04 4 2.7 1.52.67 3.15 1 4.88 1 1.74 0 3.37-.33 4.92-1 1.55-.66 2.9-1.57 4.06-2.7 1.16-1.16 2.08-2.5 2.74-4.03.67-1.54 1-3.18 1-4.94 0-1.76-.33-3.42-1-4.96-.66-1.55-1.57-2.9-2.72-4.06-1.14-1.15-2.5-2.07-4.04-2.73-1.55-.67-3.18-1-4.92-1-1.73 0-3.36.34-4.9 1.02-1.53.67-2.87 1.6-4.02 2.75-1.14 1.16-2.04 2.5-2.7 4.06-.65 1.55-.98 3.2-.98 4.97zm-1.68-.04c0-1.98.38-3.84 1.12-5.58.75-1.75 1.77-3.27 3.06-4.56 1.3-1.3 2.8-2.33 4.54-3.1 1.74-.75 3.6-1.13 5.56-1.13 1.98 0 3.83.38 5.58 1.14 1.75.77 3.27 1.8 4.56 3.1 1.3 1.28 2.32 2.8 3.08 4.55.76 1.74 1.14 3.6 1.14 5.58 0 1.97-.38 3.82-1.14 5.56-.76 1.72-1.78 3.23-3.08 4.53-1.3 1.3-2.8 2.3-4.56 3.06-1.75.73-3.6 1.1-5.58 1.1-1.97 0-3.82-.37-5.56-1.1-1.73-.76-3.24-1.78-4.54-3.07-1.3-1.3-2.3-2.8-3.06-4.54-.74-1.75-1.12-3.6-1.12-5.57M327.48 1.3v29.27L316.4 17.8 305.36 5l-.38-.5-.38-.53c.03.2.05.42.06.64 0 .22.04.43.06.65V29.3h-1.68V0l11.08 12.9 11.04 12.87.38.52.38.5-.06-.63c0-.22-.03-.43-.06-.64V1.3h1.68M0 81.94h40.96v105.6h6.56V81.94h40.96v-6.4H0v6.4M135.8 187.54h6.55v-112h-6.56v112M293.75 176.64c-14.98-16.6-29.88-33.06-44.7-49.42-15.26-16.85-30.6-33.87-46.03-51.05-.2-.24-.4-.46-.57-.63V187.64h6.72V86.75c14.97 16.58 29.87 33.04 44.7 49.35 15.45 17 30.98 34.15 46.6 51.44v-112h-6.72v101.1M396.77 75.54c-8.32 18.77-16.6 37.44-24.8 56-8.22 18.57-16.48 37.24-24.8 56h6.88c3.4-7.65 6.8-15.3 10.16-22.95l11.27-25.18h82.38v-1.9h-81.53l20.45-47.75 19 44.48h7l-26-58.7"/><path d="M419.53 142.7l9.8 21.9c3.36 7.64 6.75 15.3 10.16 22.94h6.87L426.5 142.7h-6.97M382.13 46.65c2.46 3.52 4.86 7.06 7.2 10.64 2.35 3.56 4.75 7.1 7.2 10.63h-2.56c-2.45-3.52-4.85-7.07-7.2-10.64-2.34-3.6-4.74-7.13-7.2-10.65h2.56"/></svg>